<svg xmlns="http://www.w3.org/2000/svg" fill="none" viewBox="0 0 24 24" id="Kubernetes--Streamline-Svg-Logos" height="24" width="24">
  <desc>
    Kubernetes Streamline Icon: https://streamlinehq.com
  </desc>
  <path fill="#326de6" d="M7.753 23.0771c-0.547025 0 -1.06365 -0.243125 -1.413125 -0.683775L1.0216325 15.7835c-0.349485 -0.44065 -0.48624 -1.002875 -0.349485 -1.549875L2.571525 5.98275c0.12155 -0.547025 0.486225 -0.987675 0.987675 -1.2308L11.24785 1.074765c0.243125 -0.12156 0.516625 -0.18234 0.79015 -0.18234 0.2735 0 0.547 0.06078 0.790125 0.18234L20.516775 4.73675c0.50145 0.243125 0.866125 0.683775 0.987675 1.2308l1.899375 8.250875c0.121575 0.547025 0 1.109225 -0.349475 1.549875l-5.31825 6.609825c-0.349475 0.42545 -0.8661 0.683775 -1.413125 0.683775l-8.569975 0.0152Z" stroke-width="0.25"></path>
  <path fill="#ffffff" d="M12.0228 1.27233c0.212725 0 0.42545 0.045585 0.622975 0.136755L20.33445 5.071075c0.395075 0.197525 0.698975 0.562225 0.790125 0.987675l1.899375 8.250875c0.106375 0.44065 0 0.8965 -0.2887 1.245975L17.417 22.165425c-0.2735 0.349475 -0.69895 0.547025 -1.139625 0.547025H7.753c-0.44065 0 -0.8661 -0.19755 -1.139625 -0.547025L1.2951375 15.5556c-0.2735075 -0.349475 -0.3798725 -0.805325 -0.2887025 -1.245975L2.9058 6.05875c0.106375 -0.44065 0.395075 -0.805325 0.79015 -0.987675L11.3846 1.39389c0.197525 -0.075975 0.42545 -0.12156 0.6382 -0.12156Zm0 -0.7141625c-0.3191 0 -0.6382 0.075975 -0.9421 0.2127275L3.39205 4.448075c-0.6078 0.2887 -1.0332625 0.820525 -1.1852125 1.473925L0.307465 14.172875c-0.15194975 0.653375 0 1.32195 0.42546 1.853775l5.31825 6.609825c0.41025 0.516625 1.03325 0.805325 1.686625 0.805325h8.5244c0.653375 0 1.276375 -0.2887 1.686625 -0.805325l5.31825 -6.609825c0.42545 -0.516625 0.5774 -1.2004 0.42545 -1.853775L21.793175 5.922c-0.15195 -0.6534 -0.577425 -1.185225 -1.185225 -1.473925L12.949675 0.770895c-0.2887 -0.1367525 -0.6078 -0.2127275 -0.926875 -0.2127275Z" stroke-width="0.25"></path>
  <path fill="#ffffff" d="M19.726625 13.6562c-0.0152 0 -0.0152 0 0 0h-0.0152c-0.015175 0 -0.030375 0 -0.030375 -0.0152 -0.0304 0 -0.060775 -0.015175 -0.091175 -0.015175 -0.106375 -0.0152 -0.197525 -0.0304 -0.2887 -0.0304 -0.0456 0 -0.091175 0 -0.15195 -0.0152h-0.0152c-0.3191 -0.030375 -0.5774 -0.060775 -0.820525 -0.13675 -0.106375 -0.045575 -0.13675 -0.106375 -0.16715 -0.16715 0 -0.0152 -0.0152 -0.0152 -0.0152 -0.030375l-0.197525 -0.060775c0.091175 -0.698975 0.060775 -1.42835 -0.106375 -2.1425 -0.167125 -0.714175 -0.45585 -1.38275 -0.8509 -1.99055l0.15195 -0.13675v-0.0304c0 -0.075975 0.015175 -0.15195 0.075975 -0.227925 0.182325 -0.167125 0.41025 -0.3039 0.683775 -0.471025 0.045575 -0.0304 0.09115 -0.0456 0.13675 -0.075975 0.091175 -0.0456 0.16715 -0.091175 0.2583 -0.15195 0.0152 -0.0152 0.0456 -0.0304 0.075975 -0.0608 0.0152 -0.015175 0.0304 -0.015175 0.0304 -0.030375 0.212725 -0.18235 0.2583 -0.48625 0.10635 -0.683775 -0.075975 -0.106375 -0.212725 -0.16715 -0.349475 -0.16715 -0.12155 0 -0.227925 0.045575 -0.334275 0.12155l-0.0304 0.0304c-0.0304 0.0152 -0.045575 0.045575 -0.075975 0.060775 -0.075975 0.075975 -0.13675 0.13675 -0.197525 0.212725 -0.0304 0.0304 -0.0608 0.075975 -0.106375 0.106375 -0.212725 0.227925 -0.410275 0.410275 -0.6078 0.547025 -0.045575 0.030375 -0.091175 0.045575 -0.13675 0.045575 -0.0304 0 -0.060775 0 -0.091175 -0.0152h-0.0304l-0.182325 0.121575c-0.19755 -0.212725 -0.410275 -0.395075 -0.623 -0.577425 -0.9117 -0.71415 -2.020925 -1.1548 -3.17575 -1.261175l-0.0152 -0.197525c-0.0152 -0.0152 -0.0152 -0.0152 -0.030375 -0.0304 -0.0456 -0.045575 -0.106375 -0.091175 -0.121575 -0.197525 -0.0152 -0.243125 0.0152 -0.516625 0.0456 -0.820525v-0.0152c0 -0.0456 0.015175 -0.106375 0.030375 -0.15195 0.0152 -0.091175 0.0304 -0.18235 0.0456 -0.2887v-0.136775c0 -0.2735 -0.212725 -0.501425 -0.47105 -0.501425 -0.12155 0 -0.243125 0.060775 -0.3343 0.15195 -0.09115 0.091175 -0.13675 0.212725 -0.13675 0.349475v0.121575c0 0.10635 0.0152 0.197525 0.0456 0.2887 0.015175 0.045575 0.015175 0.091175 0.030375 0.15195v0.0152c0.0304 0.3039 0.075975 0.5774 0.0456 0.820525 -0.0152 0.106375 -0.075975 0.15195 -0.121575 0.197525 -0.0152 0.0152 -0.0152 0.0152 -0.030375 0.0304l-0.0152 0.197525c-0.273525 0.0304 -0.547025 0.060775 -0.820525 0.121575 -1.170025 0.2583 -2.203275 0.8509 -3.008625 1.701825l-0.15195 -0.10635h-0.030375c-0.0304 0 -0.060775 0.015175 -0.091175 0.015175 -0.045575 0 -0.091175 -0.015175 -0.13675 -0.045575 -0.19755 -0.13675 -0.395075 -0.3343 -0.6078 -0.562225 -0.0304 -0.030375 -0.060775 -0.075975 -0.106375 -0.10635 -0.060775 -0.075975 -0.12155 -0.13675 -0.197525 -0.212725 -0.0152 -0.0152 -0.0456 -0.0304 -0.075975 -0.0608 -0.0152 -0.015175 -0.0304 -0.015175 -0.0304 -0.030375 -0.091175 -0.075975 -0.212725 -0.121575 -0.334275 -0.121575 -0.13675 0 -0.273525 0.0608 -0.3495 0.16715 -0.15195 0.19755 -0.10635 0.50145 0.106375 0.683775 0.0152 0 0.0152 0.0152 0.0304 0.0152 0.030375 0.0152 0.045575 0.045575 0.075975 0.060775 0.09115 0.060775 0.167125 0.106375 0.2583 0.15195 0.045575 0.0152 0.091175 0.0456 0.13675 0.075975 0.273525 0.16715 0.50145 0.3039 0.683775 0.47105 0.075975 0.075975 0.075975 0.15195 0.075975 0.227925v0.0304l0.15195 0.13675c-0.030375 0.045575 -0.060775 0.075975 -0.075975 0.12155 -0.75975 1.2004 -1.04845 2.61355 -0.850925 4.011475l-0.197525 0.060775c0 0.0152 -0.0152 0.0152 -0.0152 0.0304 -0.030375 0.060775 -0.075975 0.12155 -0.167125 0.16715 -0.227925 0.075975 -0.50145 0.10635 -0.82055 0.13675h-0.015175c-0.0456 0 -0.106375 0 -0.15195 0.0152 -0.091175 0 -0.18235 0.015175 -0.288725 0.030375 -0.030375 0 -0.060775 0.0152 -0.09115 0.0152 -0.0152 0 -0.0304 0 -0.0456 0.0152 -0.2735 0.060775 -0.44065 0.3191 -0.395075 0.5622 0.0456 0.21275 0.243125 0.3495 0.48625 0.3495 0.045575 0 0.075975 0 0.12155 -0.0152 0.0152 0 0.0304 0 0.0304 -0.0152 0.0304 0 0.060775 -0.0152 0.091175 -0.0152 0.10635 -0.030375 0.182325 -0.060775 0.2735 -0.10635 0.0456 -0.0152 0.091175 -0.0456 0.13675 -0.060775h0.0152c0.2887 -0.106375 0.547025 -0.19755 0.79015 -0.227925h0.030375c0.091175 0 0.15195 0.045575 0.19755 0.075975 0.015175 0 0.015175 0.015175 0.030375 0.015175l0.212725 -0.030375c0.3647 1.124425 1.06365 2.1273 1.99055 2.85665 0.212725 0.16715 0.425475 0.3039 0.653375 0.44065l-0.09115 0.19755c0 0.015175 0.0152 0.015175 0.0152 0.030375 0.030375 0.060775 0.060775 0.13675 0.030375 0.243125 -0.091175 0.227925 -0.227925 0.45585 -0.395075 0.714175v0.015175c-0.030375 0.0456 -0.060775 0.075975 -0.09115 0.121575 -0.0608 0.075975 -0.106375 0.15195 -0.16715 0.243125 -0.0152 0.015175 -0.0304 0.045575 -0.0456 0.075975 0 0.015175 -0.015175 0.030375 -0.015175 0.030375 -0.121575 0.258325 -0.0304 0.547025 0.197525 0.653375 0.060775 0.0304 0.12155 0.0456 0.18235 0.0456 0.182325 0 0.364675 -0.121575 0.455825 -0.2887 0 -0.0152 0.0152 -0.0304 0.0152 -0.0304 0.0152 -0.0304 0.0304 -0.060775 0.0456 -0.075975 0.045575 -0.106375 0.060775 -0.182325 0.09115 -0.2735 0.0152 -0.0456 0.0304 -0.091175 0.0456 -0.13675 0.10635 -0.3039 0.182325 -0.547025 0.3191 -0.75975 0.060775 -0.091175 0.13675 -0.106375 0.197525 -0.136775 0.0152 0 0.0152 0 0.0304 -0.015175l0.10635 -0.19755c0.668575 0.258325 1.39795 0.395075 2.1273 0.395075 0.44065 0 0.8965 -0.045575 1.321975 -0.15195 0.2735 -0.060775 0.531825 -0.13675 0.790125 -0.227925l0.091175 0.16715c0.0152 0 0.0152 0 0.0304 0.0152 0.075975 0.015175 0.13675 0.045575 0.197525 0.13675 0.12155 0.212725 0.212725 0.47105 0.3191 0.75975v0.0152c0.0152 0.045575 0.030375 0.09115 0.045575 0.13675 0.0304 0.091175 0.0456 0.182325 0.091175 0.2735 0.0152 0.0304 0.0304 0.045575 0.045575 0.075975 0 0.0152 0.0152 0.0304 0.0152 0.0304 0.091175 0.182325 0.273525 0.2887 0.45585 0.2887 0.060775 0 0.121575 -0.0152 0.18235 -0.0456 0.10635 -0.060775 0.197525 -0.15195 0.227925 -0.2735 0.030375 -0.12155 0.030375 -0.2583 -0.0304 -0.379875 0 -0.0152 -0.0152 -0.0152 -0.0152 -0.030375 -0.0152 -0.0304 -0.030375 -0.0608 -0.045575 -0.075975 -0.0456 -0.091175 -0.106375 -0.16715 -0.16715 -0.243125 -0.0304 -0.0456 -0.060775 -0.075975 -0.091175 -0.121575v-0.015175c-0.16715 -0.258325 -0.319075 -0.48625 -0.39505 -0.714175 -0.0304 -0.106375 0 -0.16715 0.015175 -0.243125 0 -0.0152 0.0152 -0.0152 0.0152 -0.030375l-0.075975 -0.18235c0.805325 -0.47105 1.4891 -1.139625 2.00575 -1.96015 0.2735 -0.42545 0.486225 -0.8965 0.638175 -1.36755l0.18235 0.0304c0.0152 0 0.0152 -0.0152 0.030375 -0.0152 0.0608 -0.0304 0.106375 -0.075975 0.19755 -0.075975h0.030375c0.243125 0.030375 0.50145 0.12155 0.79015 0.227925h0.0152c0.045575 0.0152 0.09115 0.045575 0.13675 0.060775 0.091175 0.045575 0.16715 0.075975 0.2735 0.106375 0.0304 0 0.060775 0.015175 0.091175 0.015175 0.0152 0 0.0304 0 0.045575 0.0152 0.0456 0.0152 0.075975 0.0152 0.121575 0.0152 0.227925 0 0.42545 -0.15195 0.486225 -0.349475 0 -0.18235 -0.167125 -0.425475 -0.44065 -0.50145Zm-7.035275 -0.74455 -0.668575 0.3191 -0.668575 -0.3191 -0.16715 -0.71415 0.45585 -0.577425h0.74455l0.45585 0.577425 -0.15195 0.71415Zm3.9659 -1.580275c0.12155 0.516625 0.15195 1.03325 0.10635 1.5347L14.438775 12.1975c-0.212725 -0.0608 -0.334275 -0.273525 -0.2887 -0.48625 0.0152 -0.060775 0.045575 -0.12155 0.091175 -0.16715l1.838575 -1.65625c0.258325 0.42545 0.45585 0.9117 0.577425 1.443525Zm-1.306775 -2.355225 -1.99055 1.413125c-0.167125 0.106375 -0.39505 0.075975 -0.5318 -0.09115 -0.0456 -0.0456 -0.0608 -0.106375 -0.075975 -0.16715l-0.136775 -2.476775c1.04845 0.12155 2.00575 0.5926 2.7351 1.32195Zm-4.40655 -1.245975c0.16715 -0.0304 0.3191 -0.0608 0.48625 -0.091175l-0.13675 2.4312c-0.0152 0.212725 -0.18235 0.39505 -0.410275 0.39505 -0.060775 0 -0.13675 -0.015175 -0.182325 -0.045575l-2.02095 -1.443525c0.623 -0.623 1.39795 -1.04845 2.26405 -1.245975Zm-2.9934 2.157675 1.8082 1.610675c0.16715 0.13675 0.18235 0.395075 0.045575 0.5622 -0.045575 0.0608 -0.10635 0.106375 -0.182325 0.121575l-2.355225 0.683775c-0.091175 -1.033275 0.13675 -2.081725 0.683775 -2.978225ZM7.54025 14.0057l2.416 -0.410275c0.19755 -0.0152 0.379875 0.12155 0.425475 0.3191 0.0152 0.091175 0.0152 0.16715 -0.0152 0.243125l-0.9269 2.23365c-0.8509 -0.547025 -1.534675 -1.38275 -1.899375 -2.3856ZM13.086425 17.0295c-0.349475 0.075975 -0.698975 0.12155 -1.06365 0.12155 -0.531825 0 -1.04845 -0.091175 -1.5347 -0.243125l1.200425 -2.172875c0.12155 -0.13675 0.319075 -0.197525 0.486225 -0.106375 0.075975 0.0456 0.13675 0.106375 0.18235 0.16715l1.17 2.1121c-0.13675 0.0456 -0.2887 0.075975 -0.44065 0.121575Zm2.963025 -2.1121c-0.379875 0.6078 -0.8813 1.094025 -1.458725 1.4739l-0.957275 -2.29445c-0.0456 -0.182325 0.030375 -0.379875 0.212725 -0.471025 0.060775 -0.0304 0.13675 -0.0456 0.212725 -0.0456l2.4312 0.410275c-0.091175 0.334275 -0.243125 0.638175 -0.44065 0.9269Z" stroke-width="0.25"></path>
</svg>