<svg xmlns="http://www.w3.org/2000/svg" fill="none" viewBox="0 0 24 24" id="Postman-Icon--Streamline-Svg-Logos" height="24" width="24">
  <desc>
    Postman Icon Streamline Icon: https://streamlinehq.com
  </desc>
  <path fill="#ff6c37" d="M23.6539 13.491975C24.47625 7.05415 19.929825 1.1684525 13.503725 0.3461 7.077625 -0.4762525 1.1684525 4.070175 0.3461 10.496275c-0.8223525 6.426075 3.724075 12.323525 10.150175 13.157625 6.437825 0.82235 12.323525 -3.724075 13.157625 -10.161925Z" stroke-width="0.25"></path>
  <path fill="#ffffff" d="M16.24085 7.79425 11.28325 12.75185l-1.398 -1.398C14.760625 6.478475 15.2423 6.9014 16.24085 7.79425Z" stroke-width="0.25"></path>
  <path fill="#ff6c37" d="M11.28345 12.86935c-0.03525 0 -0.05875 -0.01175 -0.082225 -0.03525l-1.40975 -1.398c-0.047 -0.047 -0.047 -0.117475 0 -0.164475 4.9576 -4.9576 5.4745 -4.4877 6.520075 -3.54785 0.0235 0.0235 0.03525 0.046975 0.03525 0.082225 0 0.03525 -0.01175 0.05875 -0.03525 0.08225L11.35395 12.8341c-0.01175 0.0235 -0.047 0.03525 -0.0705 0.03525Zm-1.233525 -1.515475 1.233525 1.233525L16.06485 7.806c-0.86935 -0.77535 -1.45675 -1.010325 -6.014925 3.547875Z" stroke-width="0.25"></path>
  <path fill="#ffffff" d="m12.704775 14.173225 -1.351025 -1.351 4.957625 -4.9576c1.3275 1.33925 -0.6579 3.512625 -3.6066 6.3086Z" stroke-width="0.25"></path>
  <path fill="#ff6c37" d="M12.7049 14.290875c-0.035225 0 -0.058725 -0.01175 -0.082225 -0.035225l-1.351 -1.351025c-0.0235 -0.023475 -0.0235 -0.046975 -0.0235 -0.082225 0 -0.03525 0.01175 -0.05875 0.03525 -0.082225l4.9576 -4.957625c0.046975 -0.046975 0.117475 -0.046975 0.164475 0 0.305425 0.28195 0.4699 0.681375 0.45815 1.09255 -0.0235 1.304025 -1.503725 2.960475 -4.06475 5.38055 -0.03525 0.023475 -0.0705 0.035225 -0.094 0.035225Zm-1.186525 -1.468475c0.75185 0.7636 1.06905 1.06905 1.186525 1.186525 1.97365 -1.87965 3.88855 -3.8063 3.9003 -5.133825 0.01175 -0.305425 -0.105725 -0.610875 -0.30545 -0.845825L11.518375 12.8224Z" stroke-width="0.25"></path>
  <path fill="#ffffff" d="m9.908775 11.389025 0.998575 0.998575c0.0235 0.0235 0.0235 0.047 0 0.070475 -0.01175 0.01175 -0.01175 0.01175 -0.0235 0.01175l-2.067625 0.446425c-0.105725 0.01175 -0.1997 -0.058725 -0.2232 -0.164475 -0.01175 -0.058725 0.01175 -0.117475 0.047 -0.152725l1.198275 -1.198275c0.0235 -0.0235 0.058725 -0.03525 0.070475 -0.01175Z" stroke-width="0.25"></path>
  <path fill="#ff6c37" d="M8.781025 13.033725c-0.1762 0 -0.30545 -0.140975 -0.30545 -0.3172 0 -0.082225 0.03525 -0.164475 0.094 -0.2232l1.198275 -1.1983c0.0705 -0.058725 0.164475 -0.058725 0.23495 0l0.998575 0.998575c0.0705 0.05875 0.0705 0.164475 0 0.23495 -0.0235 0.0235 -0.046975 0.03525 -0.082225 0.047l-2.067625 0.446425c-0.0235 0 -0.047 0.01175 -0.0705 0.01175Zm1.09255 -1.515475 -1.151275 1.151275c-0.0235 0.0235 -0.03525 0.05875 -0.01175 0.094 0.01175 0.035225 0.046975 0.046975 0.082225 0.035225l1.9384 -0.422925 -0.8576 -0.857575Z" stroke-width="0.25"></path>
  <path fill="#ffffff" d="M18.860825 5.0452c-0.75185 -0.728375 -1.9619 -0.704875 -2.69025 0.058725 -0.728375 0.763625 -0.704875 1.9619 0.058725 2.690275 0.62265 0.59915 1.562475 0.704875 2.3026 0.25845l-1.339275 -1.33925 1.6682 -1.6682Z" stroke-width="0.25"></path>
  <path fill="#ff6c37" d="M17.54505 8.440325c-1.11605 0 -2.020625 -0.9046 -2.020625 -2.02065s0.904575 -2.020625 2.020625 -2.020625c0.5169 0 1.022075 0.1997 1.398 0.5639 0.0235 0.0235 0.03525 0.047 0.03525 0.082225 0 0.03525 -0.01175 0.05875 -0.03525 0.08225l-1.585975 1.58595 1.245275 1.245275c0.047 0.047 0.047 0.117475 0 0.164475 -0.01175 0.01175 -0.01175 0.01175 -0.023475 0.0235 -0.30545 0.187975 -0.66965 0.2937 -1.033825 0.2937Zm0 -3.794575c-0.986825 0 -1.785675 0.79885 -1.773925 1.785675 0 0.986825 0.79885 1.785675 1.785675 1.773925 0.2702 0 0.5404 -0.058725 0.7871 -0.18795l-1.233525 -1.221775c-0.0235 -0.0235 -0.03525 -0.047 -0.03525 -0.08225 0 -0.03525 0.01175 -0.058725 0.03525 -0.082225l1.574225 -1.574225c-0.3172 -0.2702 -0.716625 -0.411175 -1.13955 -0.411175Z" stroke-width="0.25"></path>
  <path fill="#ffffff" d="m18.895825 5.080375 -0.0235 -0.0235 -1.67995 1.65645 1.327525 1.327525c0.129225 -0.08225 0.25845 -0.176225 0.364175 -0.28195 0.751875 -0.740125 0.751875 -1.9384 0.01175 -2.678525Z" stroke-width="0.25"></path>
  <path fill="#ff6c37" d="M18.5318 8.170025c-0.035225 0 -0.058725 -0.01175 -0.082225 -0.03525l-1.33925 -1.33925c-0.0235 -0.0235 -0.03525 -0.047 -0.03525 -0.082225 0 -0.03525 0.01175 -0.05875 0.03525 -0.08225l1.6682 -1.6682c0.046975 -0.046975 0.117475 -0.046975 0.16445 0l0.03525 0.0235c0.7871 0.7871 0.787125 2.055875 0.01175 2.854725 -0.117475 0.1175 -0.2467 0.223225 -0.387675 0.30545 -0.03525 0.01175 -0.05875 0.0235 -0.0705 0.0235Zm-1.174775 -1.456725 1.186525 1.186525c0.094 -0.05875 0.187975 -0.140975 0.25845 -0.21145 0.66965 -0.66965 0.704875 -1.7622 0.05875 -2.467075l-1.503725 1.492Z" stroke-width="0.25"></path>
  <path fill="#ffffff" d="M16.44065 8.005775c-0.28195 -0.28195 -0.740125 -0.28195 -1.022075 0L10.989625 12.434725l0.740125 0.740125 4.6874 -4.111775c0.30545 -0.25845 0.328925 -0.716625 0.070475 -1.02205 -0.023475 -0.01175 -0.035225 -0.0235 -0.046975 -0.03525Z" stroke-width="0.25"></path>
  <path fill="#ff6c37" d="M11.71795 13.29225c-0.03525 0 -0.05875 -0.01175 -0.08225 -0.03525l-0.7401 -0.740125c-0.047 -0.046975 -0.047 -0.117475 0 -0.16445l4.42895 -4.42895c0.328925 -0.32895 0.8576 -0.32895 1.186525 0 0.32895 0.328925 0.32895 0.857575 0 1.186525 -0.01175 0.01175 -0.0235 0.0235 -0.035225 0.03525L11.788425 13.257c-0.01175 0.0235 -0.035225 0.03525 -0.070475 0.03525Zm-0.5639 -0.8576 0.57565 0.57565 4.605175 -4.041275c0.25845 -0.21145 0.28195 -0.59915 0.070475 -0.8576 -0.21145 -0.25845 -0.59915 -0.28195 -0.8576 -0.070475 -0.01175 0.01175 -0.0235 0.0235 -0.046975 0.035225L11.15405 12.43465Z" stroke-width="0.25"></path>
  <path fill="#ffffff" d="M7.59445 17.47455c-0.047 0.0235 -0.070475 0.0705 -0.05875 0.117475l0.199725 0.84585c0.047 0.1175 -0.0235 0.258475 -0.152725 0.2937 -0.093975 0.03525 -0.1997 0 -0.25845 -0.070475l-1.292275 -1.280525 4.2175 -4.2175 1.456725 0.0235 0.986825 0.986825c-0.23495 0.199725 -1.65645 1.574225 -5.098575 3.30115Z" stroke-width="0.25"></path>
  <path fill="#ff6c37" d="M7.50045 18.848975c-0.093975 0 -0.18795 -0.035225 -0.2467 -0.105725l-1.280525 -1.280525c-0.0235 -0.023475 -0.035225 -0.046975 -0.035225 -0.082225 0 -0.03525 0.011725 -0.05875 0.035225 -0.082225l4.2175 -4.2175c0.0235 -0.0235 0.058725 -0.03525 0.082225 -0.03525l1.45675 0.0235c0.03525 0 0.058725 0.01175 0.082225 0.03525l0.986825 0.986825c0.0235 0.0235 0.03525 0.058725 0.03525 0.093975 0 0.03525 -0.01175 0.05875 -0.047 0.082225l-0.082225 0.0705c-1.245275 1.09255 -2.936975 2.1851 -5.03985 3.230675l0.199725 0.8341c0.035225 0.152725 -0.03525 0.317175 -0.176225 0.399425 -0.0705 0.03525 -0.129225 0.046975 -0.187975 0.046975Zm-1.29225 -1.468475 1.210025 1.198275c0.03525 0.05875 0.105725 0.08225 0.164475 0.047 0.058725 -0.03525 0.082225 -0.105725 0.046975 -0.164475l-0.1997 -0.84585c-0.0235 -0.105725 0.0235 -0.1997 0.117475 -0.2467 2.079375 -1.04555 3.759325 -2.126375 4.99285 -3.195425l-0.86935 -0.86935 -1.351 -0.023475 -4.11175 4.1Z" stroke-width="0.25"></path>
  <path fill="#ffffff" d="m5.033375 18.3908 1.010325 -1.0103 1.503725 1.503725 -2.396575 -0.164475c-0.105725 -0.01175 -0.176225 -0.105725 -0.164475 -0.21145 0 -0.047 0.01175 -0.094 0.047 -0.1175Z" stroke-width="0.25"></path>
  <path fill="#ff6c37" d="m7.54765 18.9899 -2.408325 -0.164475c-0.176225 -0.011725 -0.2937 -0.16445 -0.28195 -0.340675 0.01175 -0.0705 0.03525 -0.140975 0.093975 -0.187975l1.010325 -1.0103c0.047 -0.047 0.117475 -0.047 0.164475 0l1.503725 1.503725c0.03525 0.035225 0.047 0.082225 0.0235 0.129225 -0.0235 0.046975 -0.05875 0.070475 -0.105725 0.070475Zm-1.50375 -1.444975 -0.928075 0.928075c-0.03525 0.0235 -0.03525 0.082225 0 0.105725 0.01175 0.01175 0.0235 0.0235 0.047 0.0235l2.079375 0.140975 -1.1983 -1.198275Z" stroke-width="0.25"></path>
  <path fill="#ff6c37" d="M9.838425 13.70335c-0.070475 0 -0.117475 -0.058725 -0.117475 -0.117475 0 -0.03525 0.01175 -0.058725 0.03525 -0.082225l1.139525 -1.13955c0.047 -0.047 0.1175 -0.047 0.164475 0l0.740125 0.740125c0.03525 0.035225 0.047 0.070475 0.03525 0.117475 -0.01175 0.03525 -0.047 0.070475 -0.094 0.082225l-1.87965 0.399425 -0.0235 0Zm1.13955 -1.09255 -0.775375 0.775375 1.268775 -0.2702 -0.4934 -0.505175Z" stroke-width="0.25"></path>
  <path fill="#ffffff" d="m11.706325 13.1865 -1.29225 0.28195c-0.094 0.0235 -0.187975 -0.03525 -0.211475 -0.129225 -0.01175 -0.05875 0 -0.117475 0.047 -0.164475l0.716625 -0.716625 0.7401 0.728375Z" stroke-width="0.25"></path>
  <path fill="#ff6c37" d="M10.3905 13.585875c-0.164475 0 -0.2937 -0.129225 -0.2937 -0.2937 0 -0.082225 0.03525 -0.152725 0.082225 -0.21145l0.716625 -0.716625c0.047 -0.047 0.117475 -0.047 0.164475 0l0.740125 0.740125c0.03525 0.035225 0.046975 0.070475 0.03525 0.117475 -0.01175 0.03525 -0.047 0.070475 -0.094 0.082225l-1.29225 0.28195 -0.05875 0Zm0.5874 -0.975075 -0.6344 0.6344c-0.0235 0.0235 -0.0235 0.046975 -0.01175 0.070475 0.01175 0.0235 0.03525 0.03525 0.0705 0.03525l1.0808 -0.23495 -0.50515 -0.505175Z" stroke-width="0.25"></path>
  <path fill="#ff6c37" d="M18.907725 6.208375c-0.0235 -0.070475 -0.10575 -0.105725 -0.176225 -0.082225 -0.0705 0.0235 -0.105725 0.105725 -0.082225 0.176225 0 0.011725 0.01175 0.023475 0.01175 0.035225 0.070475 0.140975 0.046975 0.3172 -0.047 0.446425 -0.047 0.05875 -0.03525 0.140975 0.01175 0.187975 0.058725 0.046975 0.140975 0.035225 0.18795 -0.0235 0.176225 -0.223225 0.211475 -0.50515 0.094 -0.740125Z" stroke-width="0.25"></path>
</svg>